<svg width="84" height="62" viewBox="0 0 84 62" fill="none" xmlns="http://www.w3.org/2000/svg">
  <path d="M63.3601 61.38C66.8801 61.38 69.9601 60.72 72.6001 59.4C75.2401 57.9333 77.3667 56.0267 78.9801 53.68C80.4467 51.3333 81.6201 48.5467 82.5001 45.32C83.3801 42.0933 83.8201 38.72 83.8201 35.2C83.8201 28.0133 81.9867 21.2667 78.3201 14.96C74.5067 8.65334 68.6401 3.66667 60.7201 0L58.7401 3.96C62.8467 5.86667 66.5134 8.65334 69.7401 12.32C72.8201 15.84 74.6534 19.58 75.2401 23.54C76.1201 26.62 76.1934 29.6267 75.4601 32.56C72.2334 29.04 67.9067 27.28 62.4801 27.28C57.4934 27.28 53.3867 28.82 50.1601 31.9C46.9334 34.8333 45.3201 38.94 45.3201 44.22C45.3201 49.3533 47.0067 53.5333 50.3801 56.76C53.7534 59.84 58.0801 61.38 63.3601 61.38ZM18.0401 61.38C21.5601 61.38 24.6401 60.72 27.2801 59.4C29.9201 57.9333 32.0467 56.0267 33.6601 53.68C35.1267 51.3333 36.3001 48.5467 37.1801 45.32C38.0601 42.0933 38.5001 38.72 38.5001 35.2C38.5001 28.0133 36.6667 21.2667 33.0001 14.96C29.1867 8.65334 23.3201 3.66667 15.4001 0L13.4201 3.96C17.5267 5.86667 21.1934 8.65334 24.4201 12.32C27.5001 15.84 29.3334 19.58 29.9201 23.54C30.8001 26.62 30.8734 29.6267 30.1401 32.56C26.9134 29.04 22.5867 27.28 17.1601 27.28C12.1734 27.28 8.06673 28.82 4.84007 31.9C1.6134 34.8333 6.86646e-05 38.94 6.86646e-05 44.22C6.86646e-05 49.3533 1.68673 53.5333 5.06007 56.76C8.4334 59.84 12.7601 61.38 18.0401 61.38Z" fill="#432818" fill-opacity="0.35" />
</svg>